<svg xmlns="http://www.w3.org/2000/svg" width="35.944" height="67.143" viewBox="0 0 35.944 67.143">
  <path id="Caminho_178" data-name="Caminho 178" d="M752.159,367.1l-7.8-7.8-7.8-7.8-7.8-7.8-7.8-7.8a2.374,2.374,0,1,0-3.358,3.358l7.38,7.379,7.38,7.379,7.38,7.379,7.38,7.379-7.38,7.38-7.38,7.38-7.38,7.38-7.38,7.38a2.373,2.373,0,0,0,0,3.358,2.483,2.483,0,0,0,.368.3,2.269,2.269,0,0,0,.844.348,2.515,2.515,0,0,0,.932,0,2.281,2.281,0,0,0,.845-.348,2.464,2.464,0,0,0,.368-.3l7.8-7.8,7.8-7.8,7.8-7.8,7.8-7.8a2.364,2.364,0,0,0,.7-1.678,2.369,2.369,0,0,0-.7-1.68Z" transform="translate(752.854 402.349) rotate(180)" fill="#cac7dc"/>
</svg>
