<svg xmlns="http://www.w3.org/2000/svg" width="59.34" height="60.868" viewBox="0 0 59.34 60.868">
  <g id="Grupo_229" data-name="Grupo 229" transform="translate(-149.483 -140.458)">
    <path id="Caminho_88" data-name="Caminho 88" d="M709.266,366.549a.389.389,0,0,0,.778,0,2.547,2.547,0,0,0-5.095,0v.232a3.132,3.132,0,0,0,.757,1.92,7.754,7.754,0,0,0,1.562,1.447,13.842,13.842,0,0,0,2.228,1.3.39.39,0,0,0,.317,0,13.863,13.863,0,0,0,2.227-1.3A7.752,7.752,0,0,0,713.6,368.7a3.131,3.131,0,0,0,.757-1.92v-.232a2.547,2.547,0,0,0-4.453-1.69.389.389,0,1,0,.582.516,1.77,1.77,0,0,1,3.093,1.174v.232c0,1.865-3.237,3.548-3.928,3.886-.691-.338-3.928-2.02-3.928-3.886v-.232a1.769,1.769,0,0,1,3.539,0Z" transform="translate(-508.448 -204.622)" fill="#ea5b1b"/>
    <path id="Caminho_89" data-name="Caminho 89" d="M717.273,378.479a.389.389,0,0,0,.778,0,.7.7,0,0,1,.66-.741.389.389,0,0,0,0-.778A1.481,1.481,0,0,0,717.273,378.479Z" transform="translate(-519.729 -216.484)" fill="#ea5b1b"/>
    <path id="Caminho_90" data-name="Caminho 90" d="M668.213,312.758a7.56,7.56,0,0,0-9.2,10.892l-2.247,3.129a.415.415,0,0,0,.512.618l3.787-1.764a.415.415,0,1,0-.351-.752l-2.35,1.095,1.483-2.065a.416.416,0,0,0,.013-.465,6.731,6.731,0,1,1,3.287,2.673.415.415,0,1,0-.294.776,7.56,7.56,0,0,0,5.364-14.137Z" transform="translate(-464.268 -157.266)" fill="#461e6e"/>
    <path id="Caminho_91" data-name="Caminho 91" d="M181.507,362.611c-.079.033-.168.07-.255.111a2.729,2.729,0,0,0-1.011.911.321.321,0,0,0-.231-.1l-1.841-.041a.323.323,0,0,0-.323.346l.246,3.365a.323.323,0,0,0,.13.236.336.336,0,0,0,.264.055l1.8-.415a.319.319,0,0,0,.249-.291,5.407,5.407,0,0,0,.919.313,15.025,15.025,0,0,0,2.113.374,4.038,4.038,0,0,0,.44.029,1.161,1.161,0,0,0,1.155-.589.841.841,0,0,0,.072-.4.918.918,0,0,0,.416-.962.947.947,0,0,0,.218-.6.931.931,0,0,0-.1-.413.878.878,0,0,0,.177-.579.8.8,0,0,0-.278-.6,1.214,1.214,0,0,0-.72-.28,7.081,7.081,0,0,0-1.185.039,1.968,1.968,0,0,0,.234-1.962l-.017-.038a.086.086,0,0,0-.012-.02,1.256,1.256,0,0,0-.513-.531.914.914,0,0,0-.408-.1.814.814,0,0,0-.59.271,1.255,1.255,0,0,0-.245.948,1.3,1.3,0,0,1-.046.472A1.226,1.226,0,0,1,181.507,362.611Zm-2.8,4.166-.192-2.636,1.186.026.171,2.341Zm4.037-4.321a1.644,1.644,0,0,0,.118-.774c0-.18,0-.426.061-.491s.1-.079.128-.079a.3.3,0,0,1,.121.039.629.629,0,0,1,.237.268c.3.7-.043,1.213-.605,1.916a.32.32,0,0,0-.027.363.326.326,0,0,0,.329.157,12.6,12.6,0,0,1,1.536-.136c.1,0,.183,0,.258.009.278.023.4.137.4.233a.262.262,0,0,1-.143.274.323.323,0,0,0-.033.506.284.284,0,0,1-.031.449.323.323,0,0,0-.106.417.274.274,0,0,1-.19.4.325.325,0,0,0-.228.181.318.318,0,0,0,.007.285.389.389,0,0,1,0,.16c-.074.153-.257.224-.573.224a3.49,3.49,0,0,1-.373-.024,14.4,14.4,0,0,1-2.025-.358,3.986,3.986,0,0,1-1.011-.377.32.32,0,0,0-.115-.044l-.117-1.6a.325.325,0,0,0,.191-.137,2.623,2.623,0,0,1,.967-1c.073-.035.157-.069.23-.1A1.731,1.731,0,0,0,182.746,362.456Z" transform="translate(-25.962 -201.388)" fill="#ea5b1b"/>
    <path id="Caminho_92" data-name="Caminho 92" d="M162.393,338.516a6.455,6.455,0,1,0-6.455,6.455.374.374,0,1,0,0-.749,5.705,5.705,0,1,1,3.41-1.131.373.373,0,0,0-.138.4l.536,2.013-1.483-1.522a.374.374,0,1,0-.536.522l2.48,2.547a.374.374,0,0,0,.63-.357L160,343.535A6.421,6.421,0,0,0,162.393,338.516Z" transform="translate(0 -175.385)" fill="#461e6e"/>
    <path id="Caminho_93" data-name="Caminho 93" d="M556.391,480.794l-6.221-2.109a.487.487,0,0,0-.619.305l-.205.605-.209-.088a2.046,2.046,0,0,1-1.057-1.435,18.4,18.4,0,0,1-.391-2.3c-.071-.566-.145-1.15-.268-1.807l-.009-.058c-.217-1.389-1.057-6.074-2.748-8.032a8.739,8.739,0,0,1-1.391-2.5,3.711,3.711,0,0,0-1.314-1.985,1.738,1.738,0,0,0-1.626-.061,3.658,3.658,0,0,0-1.71,2.607,5.912,5.912,0,0,0,1.179,4.777l.042.057v.071a6.307,6.307,0,0,0,.4,2.452.489.489,0,0,0,.445.287.488.488,0,0,0,.444-.689,5.892,5.892,0,0,1-.3-2.244.489.489,0,0,0-.1-.328,4.958,4.958,0,0,1-1.142-4.21,2.708,2.708,0,0,1,1.168-1.9.74.74,0,0,1,.733.033,3.282,3.282,0,0,1,.886,1.5,9.663,9.663,0,0,0,1.555,2.764c.957,1.108,1.789,3.553,2.473,7.268.135.707.226,1.389.313,2.048a21.926,21.926,0,0,0,.423,2.48,2.991,2.991,0,0,0,1.712,2.129l.19.073-3.2,9.443-2.195-.744a2.5,2.5,0,0,0-1.716.009,4.484,4.484,0,0,0-.454.206,3.957,3.957,0,0,1-1.947.508,8,8,0,0,1-2.527-.5.488.488,0,1,0-.313.924,8.882,8.882,0,0,0,2.817.547,4.889,4.889,0,0,0,2.231-.548c.183-.083.356-.162.531-.226a1.51,1.51,0,0,1,.532-.1,1.469,1.469,0,0,1,.487.079l.037.014,2.2.747-.423,1.248a.488.488,0,0,0,.305.619l6.221,2.109a.486.486,0,0,0,.157.026h0a.488.488,0,0,0,.462-.331l4.454-13.138A.489.489,0,0,0,556.391,480.794Zm-4.916,12.982-5.3-1.8,4.141-12.214,5.3,1.8Z" transform="translate(-354.121 -293.557)" fill="#461e6e"/>
    <path id="Caminho_94" data-name="Caminho 94" d="M684.03,804.9a.7.7,0,1,0,.441.894A.708.708,0,0,0,684.03,804.9Z" transform="translate(-488.447 -608.161)" fill="#461e6e"/>
    <path id="Caminho_95" data-name="Caminho 95" d="M358.262,399.062a.489.489,0,0,0,.488-.488v-7.36a1.653,1.653,0,0,1,1.651-1.651H373.95a1.653,1.653,0,0,1,1.651,1.651v1.905a.488.488,0,1,0,.976,0v-1.905a2.63,2.63,0,0,0-2.627-2.627H360.4a2.63,2.63,0,0,0-2.627,2.627v7.36A.489.489,0,0,0,358.262,399.062Z" transform="translate(-190.66 -227.126)" fill="#461e6e"/>
    <path id="Caminho_96" data-name="Caminho 96" d="M376.577,608.415V595.487a.488.488,0,0,0-.976,0v12.928a1.653,1.653,0,0,1-1.651,1.651H360.4a1.653,1.653,0,0,1-1.651-1.651.488.488,0,1,0-.976,0,2.63,2.63,0,0,0,2.627,2.627H373.95A2.63,2.63,0,0,0,376.577,608.415Z" transform="translate(-190.66 -416.066)" fill="#461e6e"/>
    <path id="Caminho_97" data-name="Caminho 97" d="M308.444,544.449a2.453,2.453,0,0,0-.2-1.929l-.111-.2.208-.095a2.471,2.471,0,0,0,.667-.444l.091-.085.006,0a2.464,2.464,0,0,0-.311-3.717l-.22-.16.21-.174a2.463,2.463,0,0,0-.344-4.027l-.255-.147.221-.195a2.462,2.462,0,0,0-.841-4.179l-1.184-.374a2.541,2.541,0,0,0-.3-.056l-.057-.007-.037,0c-.079-.008-.159-.012-.237-.012a2.465,2.465,0,0,0-2.336,1.673.5.5,0,0,0-.02.085l-.006.028a2.458,2.458,0,0,0,.2,1.871l.11.2-.211.093a2.467,2.467,0,0,0-.695.456l-.092.085-.006,0a2.464,2.464,0,0,0,.312,3.716l.22.16-.209.174a2.463,2.463,0,0,0,.344,4.027l.255.147-.221.195a2.463,2.463,0,0,0,.841,4.179l1.018.322a2.462,2.462,0,0,0,.788.131h.075A2.472,2.472,0,0,0,308.444,544.449Zm-4.108-13.77a1.492,1.492,0,0,1,1.432-1.054c.041,0,.082,0,.123.005l.035,0,.03,0h.009a1.5,1.5,0,0,1,.264.062l1.018.322a1.489,1.489,0,1,1-.952,2.821l-.079-.027-.938-.295c-.046-.016-.088-.027-.13-.039l-.035-.013A1.508,1.508,0,0,1,304.336,530.679ZM303.02,534.5l.006-.026.013-.024a.508.508,0,0,0,.034-.076,1.464,1.464,0,0,1,1.818-.94l.013,0c.064.022,1.967.653,2.964.983l.032.013a1.488,1.488,0,0,1-1.169,2.727l-.079-.027-2.644-.873c-.047-.016-.089-.028-.131-.039l-.036-.013A1.488,1.488,0,0,1,303.02,534.5Zm.171,4.1a1.488,1.488,0,0,1,1.888-.932l.079.027,2.644.873c.047.016.089.028.131.039l.036.013a1.488,1.488,0,0,1,.82,1.712l-.006.026-.013.023a.493.493,0,0,0-.034.076,1.467,1.467,0,0,1-1.7.97l-.034-.01c-.08-.029-1.873-.618-3.058-1.007l-.032-.014A1.48,1.48,0,0,1,303.191,538.6Zm4.286,5.563a.3.3,0,0,1-.01.037,1.487,1.487,0,0,1-1.289,1.006l-.022,0c-.03,0-.06,0-.09,0h-.011a1.511,1.511,0,0,1-.21-.018l-.005.017-.215-.064-.045-.013-1.018-.322a1.489,1.489,0,1,1,.952-2.821c.357.115.949.3,1.006.318l.011,0A1.468,1.468,0,0,1,307.477,544.167Z" transform="translate(-139.605 -355.331)" fill="#461e6e"/>
    <path id="Caminho_98" data-name="Caminho 98" d="M431.99,421.585a.333.333,0,1,0-.333.333A.333.333,0,0,0,431.99,421.585Z" transform="translate(-257.985 -257.026)" fill="#461e6e"/>
    <path id="Caminho_99" data-name="Caminho 99" d="M459.2,421.919a.332.332,0,0,0,0-.665h-4.061a.332.332,0,0,0,0,.665Z" transform="translate(-279.477 -257.028)" fill="#461e6e"/>
    <path id="Caminho_100" data-name="Caminho 100" d="M457.657,737.4a.947.947,0,1,0,.947-.947A.948.948,0,0,0,457.657,737.4Z" transform="translate(-282.088 -545.547)" fill="#461e6e"/>
    <path id="Caminho_101" data-name="Caminho 101" d="M412.155,711.994a.489.489,0,0,0-.488-.488H399.78a.488.488,0,1,0,0,.976h11.887A.488.488,0,0,0,412.155,711.994Z" transform="translate(-228.664 -522.711)" fill="#461e6e"/>
    <path id="Caminho_102" data-name="Caminho 102" d="M399.895,449.361H386.919a.488.488,0,0,0,0,.976h12.976a.488.488,0,1,0,0-.976Z" transform="translate(-216.891 -282.756)" fill="#461e6e"/>
    <path id="Caminho_103" data-name="Caminho 103" d="M392.117,155.429l.839,3.76a.415.415,0,0,0,.8.029l1.205-4a.415.415,0,1,0-.795-.24l-.748,2.482-.553-2.481a.415.415,0,0,0-.339-.319,6.731,6.731,0,1,1,4.184-.673.415.415,0,1,0,.383.737,7.56,7.56,0,1,0-10.2-3.219A7.493,7.493,0,0,0,392.117,155.429Z" transform="translate(-216.541 0)" fill="#461e6e"/>
    <path id="Caminho_104" data-name="Caminho 104" d="M428.428,221.264a.761.761,0,1,0,.761-.761A.761.761,0,0,0,428.428,221.264Z" transform="translate(-255.333 -73.27)" fill="#ea5b1b"/>
    <path id="Caminho_105" data-name="Caminho 105" d="M466.366,221.264a.761.761,0,1,0,.761-.761A.761.761,0,0,0,466.366,221.264Z" transform="translate(-290.06 -73.27)" fill="#ea5b1b"/>
    <path id="Caminho_106" data-name="Caminho 106" d="M505.824,221.264a.761.761,0,1,0-.76.761A.761.761,0,0,0,505.824,221.264Z" transform="translate(-324.786 -73.27)" fill="#ea5b1b"/>
  </g>
</svg>
