<svg xmlns="http://www.w3.org/2000/svg" width="42.315" height="33.417" viewBox="0 0 42.315 33.417">
  <g id="Grupo_211" data-name="Grupo 211" transform="translate(-581.977 -296.108)">
    <g id="Grupo_201" data-name="Grupo 201" transform="translate(586.191 296.483)">
      <path id="Caminho_137" data-name="Caminho 137" d="M589.448,322.716V298.969a2.479,2.479,0,0,1,2.474-2.486h28.941a2.48,2.48,0,0,1,2.475,2.486v23.747" transform="translate(-589.448 -296.483)" fill="none" stroke="#d7175b" stroke-linejoin="round" stroke-width="0.75"/>
    </g>
    <g id="Grupo_202" data-name="Grupo 202" transform="translate(582.352 322.716)">
      <path id="Caminho_138" data-name="Caminho 138" d="M623.918,345.966v4.445a.993.993,0,0,1-.99.994H583.341a.993.993,0,0,1-.989-.994v-4.445a.992.992,0,0,1,.989-.994h39.586A.992.992,0,0,1,623.918,345.966Z" transform="translate(-582.352 -344.972)" fill="none" stroke="#d7175b" stroke-linejoin="round" stroke-width="0.75"/>
    </g>
    <g id="Grupo_209" data-name="Grupo 209" transform="translate(592.218 302.381)">
      <g id="Grupo_204" data-name="Grupo 204" transform="translate(5.263 6.996)">
        <g id="Grupo_203" data-name="Grupo 203">
          <path id="Caminho_139" data-name="Caminho 139" d="M621.625,320.315v5.44a7.8,7.8,0,0,0-5.654,2.106,7.8,7.8,0,0,0-5.652-2.106h0v-5.44" transform="translate(-610.318 -320.315)" fill="none" stroke="#d7175b" stroke-linejoin="round" stroke-width="0.75"/>
        </g>
      </g>
      <g id="Grupo_205" data-name="Grupo 205" transform="translate(0.866 0)">
        <path id="Caminho_140" data-name="Caminho 140" d="M621.914,312.646l-4.021,1.733-5.373,2.317a.674.674,0,0,1-.56,0l-5.373-2.317-4.021-1.733a.628.628,0,0,1,0-1.151l9.393-4.05a.679.679,0,0,1,.56,0l9.393,4.05A.628.628,0,0,1,621.914,312.646Z" transform="translate(-602.191 -307.384)" fill="none" stroke="#d7175b" stroke-linejoin="round" stroke-width="0.75"/>
      </g>
      <g id="Grupo_206" data-name="Grupo 206" transform="translate(0.866 4.687)">
        <line id="Linha_7" data-name="Linha 7" y2="4.768" fill="none" stroke="#d7175b" stroke-miterlimit="10" stroke-width="0.75"/>
      </g>
      <g id="Grupo_207" data-name="Grupo 207" transform="translate(0.309 8.899)">
        <ellipse id="Elipse_13" data-name="Elipse 13" cx="0.557" cy="0.324" rx="0.557" ry="0.324" fill="none" stroke="#d7175b" stroke-miterlimit="10" stroke-width="0.75"/>
      </g>
      <g id="Grupo_208" data-name="Grupo 208" transform="translate(0 10.124)">
        <path id="Caminho_141" data-name="Caminho 141" d="M600.6,327.64l.659-1.436a.23.23,0,0,1,.388,0l.659,1.436c.048.1-.051.216-.194.216H600.8C600.652,327.856,600.553,327.745,600.6,327.64Z" transform="translate(-600.589 -326.098)" fill="none" stroke="#d7175b" stroke-miterlimit="10" stroke-width="0.75"/>
      </g>
    </g>
    <g id="Grupo_210" data-name="Grupo 210" transform="translate(602.398 325.994)">
      <line id="Linha_8" data-name="Linha 8" x2="1.475" fill="none" stroke="#d7175b" stroke-linecap="round" stroke-linejoin="round" stroke-width="0.75"/>
    </g>
  </g>
</svg>
