<svg xmlns="http://www.w3.org/2000/svg" width="39.087" height="38.783" viewBox="0 0 39.087 38.783">
  <g id="Grupo_257" data-name="Grupo 257" transform="translate(-2744.042 -345.579)">
    <path id="Caminho_156" data-name="Caminho 156" d="M2782.315,345.579h-37.458a.814.814,0,0,0-.814.814v30.944a.814.814,0,0,0,.814.814h12.927a.814.814,0,1,0,0-1.629h-12.113v-22.8h35.83v22.8h-.765a.814.814,0,0,0,0,1.629h1.58a.814.814,0,0,0,.814-.814V346.393A.814.814,0,0,0,2782.315,345.579Zm-36.644,6.514v-4.886h35.83v4.886Z" transform="translate(0 0)" fill="#461e6e"/>
    <path id="Caminho_157" data-name="Caminho 157" d="M2768.635,369.047a.567.567,0,0,0-.26-.178.818.818,0,0,0-.619,0,.861.861,0,0,0-.439.439.7.7,0,0,0-.065.31.654.654,0,0,0,.065.309.57.57,0,0,0,.179.261.588.588,0,0,0,.26.18.653.653,0,0,0,.31.065.7.7,0,0,0,.31-.065.582.582,0,0,0,.26-.18.576.576,0,0,0,.18-.261.665.665,0,0,0,.065-.309.716.716,0,0,0-.065-.31A.583.583,0,0,0,2768.635,369.047Z" transform="translate(-19.952 -19.969)" fill="#461e6e"/>
    <path id="Caminho_158" data-name="Caminho 158" d="M2791.845,369.047a.568.568,0,0,0-.26-.178.818.818,0,0,0-.619,0,.735.735,0,0,0-.277.178.719.719,0,0,0-.162.261.7.7,0,0,0-.065.31.654.654,0,0,0,.065.309.707.707,0,0,0,.162.261.759.759,0,0,0,.277.18.768.768,0,0,0,.619,0,.882.882,0,0,0,.44-.44.671.671,0,0,0,.064-.309.722.722,0,0,0-.064-.31A.585.585,0,0,0,2791.845,369.047Z" transform="translate(-39.904 -19.969)" fill="#461e6e"/>
    <path id="Caminho_159" data-name="Caminho 159" d="M2815.233,369.341a.582.582,0,0,0-.179-.261.835.835,0,0,0-.879-.178.855.855,0,0,0-.44.439.7.7,0,0,0-.066.31.647.647,0,0,0,.066.309.568.568,0,0,0,.178.261.761.761,0,0,0,.57.245.655.655,0,0,0,.309-.065.584.584,0,0,0,.26-.18.573.573,0,0,0,.179-.261.659.659,0,0,0,.066-.309A.71.71,0,0,0,2815.233,369.341Z" transform="translate(-59.856 -20.003)" fill="#461e6e"/>
    <path id="Caminho_160" data-name="Caminho 160" d="M2779.681,426.811a.814.814,0,0,0-.815.814v6.514a.814.814,0,0,0,.815.814h6.514a.814.814,0,0,0,.814-.814v-6.514a.814.814,0,0,0-.814-.814Zm5.7,6.514H2780.5V428.44h4.886Z" transform="translate(-29.937 -69.832)" fill="#461e6e"/>
    <path id="Caminho_161" data-name="Caminho 161" d="M2861.792,451.65h14.51a.814.814,0,1,0,0-1.629h-14.51a.814.814,0,0,0,0,1.629Z" transform="translate(-100.525 -89.784)" fill="#461e6e"/>
    <path id="Caminho_162" data-name="Caminho 162" d="M2861.792,428.44h14.51a.814.814,0,1,0,0-1.629h-14.51a.814.814,0,0,0,0,1.629Z" transform="translate(-100.525 -69.832)" fill="#461e6e"/>
    <path id="Caminho_163" data-name="Caminho 163" d="M2861.792,474.859h1.429a.814.814,0,0,0,0-1.629h-1.429a.814.814,0,0,0,0,1.629Z" transform="translate(-100.525 -109.736)" fill="#461e6e"/>
    <path id="Caminho_164" data-name="Caminho 164" d="M2902.534,528.464a3.539,3.539,0,1,0,1.936,4.617A3.552,3.552,0,0,0,2902.534,528.464Zm.428,4a1.911,1.911,0,1,1-1.765-2.635,1.879,1.879,0,0,1,.719.143A1.913,1.913,0,0,1,2902.962,532.464Z" transform="translate(-132.054 -156.994)" fill="#ea5b1b"/>
    <path id="Caminho_165" data-name="Caminho 165" d="M2873.189,496.055l-1.689-.964a7.42,7.42,0,0,0,0-1.21l1.682-.978a.816.816,0,0,0,.378-.913,9.968,9.968,0,0,0-1.057-2.521.811.811,0,0,0-.915-.371l-1.877.512a7.442,7.442,0,0,0-.86-.854l.5-1.88a.812.812,0,0,0-.377-.911,9.8,9.8,0,0,0-2.529-1.037.808.808,0,0,0-.91.385l-.964,1.687a7.559,7.559,0,0,0-1.215,0l-.978-1.681a.819.819,0,0,0-.912-.378,10.161,10.161,0,0,0-2.52,1.054.817.817,0,0,0-.372.916l.513,1.877a7.508,7.508,0,0,0-.857.864l-1.879-.5a.82.82,0,0,0-.913.379,10.005,10.005,0,0,0-1.035,2.529.817.817,0,0,0,.385.91l1.688.962a7.5,7.5,0,0,0,0,1.217l-1.681.978a.815.815,0,0,0-.378.913,10.1,10.1,0,0,0,1.057,2.521.816.816,0,0,0,.915.371l1.877-.514a7.4,7.4,0,0,0,.863.856l-.5,1.878a.815.815,0,0,0,.378.913,9.888,9.888,0,0,0,2.528,1.035.815.815,0,0,0,.91-.385l.964-1.691a7.521,7.521,0,0,0,1.212,0l.978,1.681a.807.807,0,0,0,.912.377,9.977,9.977,0,0,0,2.522-1.056.816.816,0,0,0,.371-.916l-.513-1.877a7.557,7.557,0,0,0,.852-.86l1.88.5a.824.824,0,0,0,.912-.378,9.807,9.807,0,0,0,1.036-2.529A.816.816,0,0,0,2873.189,496.055Zm-1.769,2.079-1.777-.471a.823.823,0,0,0-.869.312,5.878,5.878,0,0,1-1.289,1.3.814.814,0,0,0-.3.872l.485,1.773a8.189,8.189,0,0,1-.98.41l-.925-1.589a.81.81,0,0,0-.835-.393,6,6,0,0,1-1.833.01.811.811,0,0,0-.829.4l-.911,1.6a8.081,8.081,0,0,1-.982-.4l.469-1.775a.814.814,0,0,0-.311-.868,5.9,5.9,0,0,1-1.3-1.295.822.822,0,0,0-.872-.3l-1.773.485a8.7,8.7,0,0,1-.41-.98l1.588-.922a.815.815,0,0,0,.395-.835,5.839,5.839,0,0,1-.008-1.837.817.817,0,0,0-.4-.832l-1.595-.91a8.449,8.449,0,0,1,.4-.981l1.775.469a.818.818,0,0,0,.869-.31,5.872,5.872,0,0,1,1.294-1.3.812.812,0,0,0,.3-.872l-.484-1.772a8.757,8.757,0,0,1,.979-.41l.924,1.589a.8.8,0,0,0,.835.395,5.861,5.861,0,0,1,1.834-.008.8.8,0,0,0,.832-.4l.91-1.6a7.984,7.984,0,0,1,.982.4l-.47,1.776a.814.814,0,0,0,.31.868,5.867,5.867,0,0,1,1.3,1.291.816.816,0,0,0,.873.305l1.773-.484a8.216,8.216,0,0,1,.41.978l-1.589.924a.816.816,0,0,0-.394.835,5.857,5.857,0,0,1,.007,1.831.817.817,0,0,0,.4.832l1.6.911A7.952,7.952,0,0,1,2871.421,498.134Z" transform="translate(-94.845 -119.769)" fill="#ea5b1b"/>
  </g>
</svg>
