<svg xmlns="http://www.w3.org/2000/svg" width="44.75" height="37.139" viewBox="0 0 44.75 37.139">
  <g id="Grupo_195" data-name="Grupo 195" transform="translate(-731.801 -241.096)">
    <g id="Grupo_193" data-name="Grupo 193">
      <g id="Grupo_191" data-name="Grupo 191">
        <g id="Grupo_189" data-name="Grupo 189">
          <g id="Grupo_187" data-name="Grupo 187">
            <path id="Caminho_116" data-name="Caminho 116" d="M752.162,273.949a.271.271,0,0,1-.268-.316l.34-2.029a.275.275,0,0,1,.076-.147l5.257-5.258a.272.272,0,0,1,.384,0l1.689,1.689a.272.272,0,0,1,0,.384l-5.257,5.258a.27.27,0,0,1-.147.075l-2.029.341Zm.593-2.17-.263,1.568,1.568-.263,5-5-1.305-1.3Zm1.436,1.559h0Z" fill="#d4004b"/>
          </g>
          <g id="Grupo_188" data-name="Grupo 188">
            <path id="Caminho_117" data-name="Caminho 117" d="M759.448,268.352a.272.272,0,0,1-.192-.08l-1.689-1.689a.272.272,0,0,1,0-.384l.771-.771a.769.769,0,0,1,1.061,0l1.012,1.012a.75.75,0,0,1,0,1.061l-.771.771A.27.27,0,0,1,759.448,268.352Zm-1.3-1.961,1.3,1.305.579-.579a.206.206,0,0,0,.061-.146.2.2,0,0,0-.061-.147l-1.012-1.012a.213.213,0,0,0-.293,0Z" fill="#d4004b"/>
          </g>
        </g>
        <g id="Grupo_190" data-name="Grupo 190">
          <path id="Caminho_118" data-name="Caminho 118" d="M754.191,273.609a.269.269,0,0,1-.192-.079l-1.689-1.689a.272.272,0,1,1,.384-.384l1.689,1.689a.271.271,0,0,1-.192.463Z" fill="#d4004b"/>
        </g>
      </g>
      <g id="Grupo_192" data-name="Grupo 192">
        <path id="Caminho_119" data-name="Caminho 119" d="M757.835,278.235h-9.094A1.138,1.138,0,0,1,747.6,277.1v-9.094a1.138,1.138,0,0,1,1.137-1.137h5.209a.272.272,0,0,1,0,.543h-5.209a.6.6,0,0,0-.594.594V277.1a.6.6,0,0,0,.594.593h9.094a.594.594,0,0,0,.594-.593v-5.746a.271.271,0,0,1,.543,0V277.1A1.138,1.138,0,0,1,757.835,278.235Z" fill="#d4004b"/>
      </g>
    </g>
    <g id="Grupo_194" data-name="Grupo 194">
      <path id="Caminho_120" data-name="Caminho 120" d="M763.177,271.471h2.5a10.869,10.869,0,0,0,0-21.725c-.019,0-.038,0-.058,0a8.951,8.951,0,0,0-17.711-1.037,7.259,7.259,0,0,0-3.731-1.035,7.633,7.633,0,0,0-7.5,7.759,8,8,0,0,0,.247,1.942,7.225,7.225,0,0,0-4.747,6.851,7.124,7.124,0,0,0,7,7.242h6" fill="none" stroke="#d4004b" stroke-linejoin="round" stroke-width="0.75"/>
    </g>
  </g>
</svg>
