<svg xmlns="http://www.w3.org/2000/svg" width="30.16" height="36.3" viewBox="0 0 30.16 36.3">
  <g id="Grupo_185" data-name="Grupo 185" transform="translate(-1056.073 -107.136)">
    <g id="Grupo_164" data-name="Grupo 164" transform="translate(1063.05 113.479)">
      <path id="Caminho_107" data-name="Caminho 107" d="M1180.76,231.013h-21.384V201.056h21.384Zm-20.844-.54h20.3V201.6h-20.3Z" transform="translate(-1159.376 -201.056)" fill="#461e6e"/>
    </g>
    <g id="Grupo_165" data-name="Grupo 165" transform="translate(1084.883 114.983)">
      <path id="Caminho_108" data-name="Caminho 108" d="M1483.985,250.271h-1.35v-.54h.809V223.863h-.809v-.54h1.35Z" transform="translate(-1482.635 -223.322)" fill="#461e6e"/>
    </g>
    <g id="Grupo_166" data-name="Grupo 166" transform="translate(1060.015 110.489)">
      <path id="Caminho_109" data-name="Caminho 109" d="M1116.1,187.872l-1.658-29.909,21.351-1.184.149,2.567-.539.031-.118-2.029-5.33.3-14.943.829,1.6,28.833.389-.019.027.54Z" transform="translate(-1114.44 -156.78)" fill="#461e6e"/>
    </g>
    <g id="Grupo_169" data-name="Grupo 169" transform="translate(1074.744 134.421)">
      <g id="Grupo_167" data-name="Grupo 167" transform="translate(0)">
        <path id="Caminho_110" data-name="Caminho 110" d="M1335.93,517.931a3.41,3.41,0,1,1,3.41-3.409A3.413,3.413,0,0,1,1335.93,517.931Zm0-6.279a2.869,2.869,0,1,0,2.869,2.869A2.872,2.872,0,0,0,1335.93,511.652Z" transform="translate(-1332.52 -511.112)" fill="#ea5b1b"/>
      </g>
      <g id="Grupo_168" data-name="Grupo 168" transform="translate(1.671 2.174)">
        <path id="Caminho_111" data-name="Caminho 111" d="M1358.6,545.96l-1.34-1.34.382-.382.958.958,1.9-1.9.382.382Z" transform="translate(-1357.264 -543.298)" fill="#ea5b1b"/>
      </g>
    </g>
    <g id="Grupo_180" data-name="Grupo 180" transform="translate(1066.191 116.972)">
      <g id="Grupo_170" data-name="Grupo 170" transform="translate(0 17.448)">
        <rect id="Retângulo_100" data-name="Retângulo 100" width="6.762" height="0.54" fill="#461e6e"/>
      </g>
      <g id="Grupo_173" data-name="Grupo 173" transform="translate(3.776 0)">
        <g id="Grupo_171" data-name="Grupo 171">
          <rect id="Retângulo_101" data-name="Retângulo 101" width="4.256" height="0.54" fill="#461e6e"/>
        </g>
        <g id="Grupo_172" data-name="Grupo 172" transform="translate(5.284)">
          <rect id="Retângulo_102" data-name="Retângulo 102" width="1.477" height="0.54" fill="#461e6e"/>
        </g>
      </g>
      <g id="Grupo_174" data-name="Grupo 174" transform="translate(0.72 2.59)">
        <rect id="Retângulo_103" data-name="Retângulo 103" width="12.874" height="0.54" fill="#461e6e"/>
      </g>
      <g id="Grupo_175" data-name="Grupo 175" transform="translate(1.665 5.179)">
        <rect id="Retângulo_104" data-name="Retângulo 104" width="13.372" height="0.54" fill="#461e6e"/>
      </g>
      <g id="Grupo_176" data-name="Grupo 176" transform="translate(0.72 7.769)">
        <rect id="Retângulo_105" data-name="Retângulo 105" width="12.846" height="0.54" fill="#461e6e"/>
      </g>
      <g id="Grupo_177" data-name="Grupo 177" transform="translate(0.72 10.358)">
        <rect id="Retângulo_106" data-name="Retângulo 106" width="12.846" height="0.54" fill="#461e6e"/>
      </g>
      <g id="Grupo_178" data-name="Grupo 178" transform="translate(4.531 12.948)">
        <rect id="Retângulo_107" data-name="Retângulo 107" width="10.506" height="0.54" fill="#461e6e"/>
      </g>
      <g id="Grupo_179" data-name="Grupo 179" transform="translate(0 21.632)">
        <rect id="Retângulo_108" data-name="Retângulo 108" width="4.268" height="0.54" fill="#461e6e"/>
      </g>
    </g>
    <g id="Grupo_184" data-name="Grupo 184" transform="translate(1056.073 107.136)">
      <g id="Grupo_181" data-name="Grupo 181" transform="translate(3.774 0)">
        <rect id="Retângulo_109" data-name="Retângulo 109" width="0.54" height="2.793" transform="translate(0 0.049) rotate(-5.246)" fill="#ea5b1b"/>
      </g>
      <g id="Grupo_182" data-name="Grupo 182" transform="translate(1.346 1.239)">
        <rect id="Retângulo_110" data-name="Retângulo 110" width="0.54" height="2.363" transform="translate(0 0.354) rotate(-40.885)" fill="#ea5b1b"/>
      </g>
      <g id="Grupo_183" data-name="Grupo 183" transform="translate(0 4.167)">
        <rect id="Retângulo_111" data-name="Retângulo 111" width="0.54" height="2.546" transform="translate(0 0.539) rotate(-86.76)" fill="#ea5b1b"/>
      </g>
    </g>
  </g>
</svg>
