<svg xmlns="http://www.w3.org/2000/svg" width="32.657" height="33.417" viewBox="0 0 32.657 33.417">
  <g id="Grupo_200" data-name="Grupo 200" transform="translate(-550.375 -190.375)">
    <path id="Caminho_130" data-name="Caminho 130" d="M554.548,205.184h-2.279a1.61,1.61,0,0,0-1.519,1.688v4.221a1.61,1.61,0,0,0,1.519,1.688h2.279V202.4c0-5.594,5.618-11.649,12.535-11.649s12.535,6.055,12.535,11.649v5.824" transform="translate(0)" fill="none" stroke="#d4004b" stroke-miterlimit="10" stroke-width="0.75"/>
    <path id="Caminho_131" data-name="Caminho 131" d="M588.75,209.75h1.519a1.61,1.61,0,0,1,1.519,1.688v4.221a1.61,1.61,0,0,1-1.519,1.688H588.75" transform="translate(-9.132 -4.566)" fill="none" stroke="#d4004b" stroke-miterlimit="10" stroke-width="0.75"/>
    <path id="Caminho_132" data-name="Caminho 132" d="M583.55,213.75l0,2.279a10.892,10.892,0,0,1-3.8,8.069" transform="translate(-6.969 -5.527)" fill="none" stroke="#d4004b" stroke-miterlimit="10" stroke-width="0.75"/>
    <path id="Caminho_133" data-name="Caminho 133" d="M565.75,197.75c0,5.318,10.588,12.155,15.953,12.155" transform="translate(-3.605 -1.682)" fill="none" stroke="#d4004b" stroke-miterlimit="10" stroke-width="0.75"/>
    <path id="Caminho_134" data-name="Caminho 134" d="M565.068,201.75c-2.279.95-5.318,5.175-5.318,8.357v3.039a10.651,10.651,0,0,0,6.137,9.114" transform="translate(-2.163 -2.643)" fill="none" stroke="#d4004b" stroke-miterlimit="10" stroke-width="0.75"/>
    <path id="Caminho_135" data-name="Caminho 135" d="M575.068,231.269a1.519,1.519,0,0,1-1.519,1.519h-2.279a1.519,1.519,0,0,1-1.519-1.519h0a1.519,1.519,0,0,1,1.519-1.519h2.279a1.519,1.519,0,0,1,1.519,1.519Z" transform="translate(-4.566 -9.372)" fill="none" stroke="#d4004b" stroke-miterlimit="10" stroke-width="0.75"/>
    <path id="Caminho_136" data-name="Caminho 136" d="M575.75,228.145h.9a8.978,8.978,0,0,0,8.978-8.978V216.75" transform="translate(-6.008 -6.248)" fill="none" stroke="#d4004b" stroke-miterlimit="10" stroke-width="0.75"/>
  </g>
</svg>
