<svg xmlns="http://www.w3.org/2000/svg" width="62.378" height="49.5" viewBox="0 0 62.378 49.5">
  <g id="Grupo_256" data-name="Grupo 256" transform="translate(-353 -1813)">
    <g id="Grupo_245" data-name="Grupo 245" transform="translate(-4834.07 1231.932)">
      <path id="Caminho_142" data-name="Caminho 142" d="M5240.427,716.485h-48.268a5.1,5.1,0,0,1-5.088-5.09V685.179a5.1,5.1,0,0,1,5.088-5.09h26.123a.992.992,0,0,1,0,1.985h-26.123a3.109,3.109,0,0,0-3.1,3.105V711.4a3.109,3.109,0,0,0,3.1,3.105h48.268a3.109,3.109,0,0,0,3.105-3.105V697.878a.993.993,0,0,1,1.985,0V711.4A5.1,5.1,0,0,1,5240.427,716.485Z" transform="translate(0 -85.917)" fill="#461e6e"/>
      <path id="Caminho_143" data-name="Caminho 143" d="M5460.535,608.974a1,1,0,0,1-.462-.114l-7.961-4.185-7.96,4.185a.992.992,0,0,1-1.439-1.046l1.52-8.864-6.439-6.278a.992.992,0,0,1,.55-1.693l8.9-1.293,3.98-8.065a.992.992,0,0,1,1.78,0l3.981,8.065,8.9,1.293a.993.993,0,0,1,.551,1.693l-6.441,6.278,1.521,8.864a.993.993,0,0,1-.979,1.16Zm-8.423-6.413a1,1,0,0,1,.464.114l6.642,3.492-1.269-7.4a.991.991,0,0,1,.285-.878l5.374-5.238-7.426-1.079a1,1,0,0,1-.749-.543l-3.321-6.729-3.32,6.729a.991.991,0,0,1-.747.543l-7.426,1.079,5.373,5.238a.989.989,0,0,1,.285.878l-1.268,7.4,6.643-3.492A.987.987,0,0,1,5452.112,602.561Z" transform="translate(-217.286)" fill="#fc4815"/>
      <path id="Caminho_144" data-name="Caminho 144" d="M5236.946,733.069h-5.354a3.726,3.726,0,0,1-3.722-3.722v-5.354a3.726,3.726,0,0,1,3.722-3.722h5.354a3.725,3.725,0,0,1,3.721,3.722v5.354A3.725,3.725,0,0,1,5236.946,733.069Zm-5.354-10.812a1.738,1.738,0,0,0-1.736,1.737v5.354a1.738,1.738,0,0,0,1.736,1.737h5.354a1.738,1.738,0,0,0,1.736-1.737v-5.354a1.738,1.738,0,0,0-1.736-1.737Z" transform="translate(-35.401 -120.783)" fill="#461e6e"/>
      <path id="Caminho_145" data-name="Caminho 145" d="M5364.294,736.407h-6.178a.992.992,0,1,1,0-1.985h6.178a.992.992,0,0,1,0,1.985Z" transform="translate(-147.551 -133.061)" fill="#461e6e"/>
      <path id="Caminho_146" data-name="Caminho 146" d="M5369.382,781.265h-11.266a.993.993,0,1,1,0-1.985h11.266a.993.993,0,1,1,0,1.985Z" transform="translate(-147.551 -171.982)" fill="#461e6e"/>
      <path id="Caminho_147" data-name="Caminho 147" d="M5255.416,856.811h-23.633a.993.993,0,1,1,0-1.985h23.633a.993.993,0,0,1,0,1.985Z" transform="translate(-37.935 -237.532)" fill="#461e6e"/>
      <path id="Caminho_148" data-name="Caminho 148" d="M5480.152,856.811h-11.265a.993.993,0,0,1,0-1.985h11.265a.993.993,0,1,1,0,1.985Z" transform="translate(-243.663 -237.532)" fill="#461e6e"/>
      <path id="Caminho_149" data-name="Caminho 149" d="M5250.188,902.308h-18.4a.992.992,0,1,1,0-1.985h18.4a.992.992,0,1,1,0,1.985Z" transform="translate(-37.935 -277.008)" fill="#461e6e"/>
      <path id="Caminho_150" data-name="Caminho 150" d="M5507.512,902.308h-7.093a.992.992,0,0,1,0-1.985h7.093a.992.992,0,1,1,0,1.985Z" transform="translate(-271.023 -277.008)" fill="#461e6e"/>
    </g>
  </g>
</svg>
