<svg xmlns="http://www.w3.org/2000/svg" width="40.415" height="30.051" viewBox="0 0 40.415 30.051">
  <g id="Grupo_197" data-name="Grupo 197" transform="translate(-683.359 -354.337)">
    <path id="Caminho_124" data-name="Caminho 124" d="M723.057,354.337H690.636a.732.732,0,0,0-.717.743v2.743h-2.564a.732.732,0,0,0-.714.745v2.741h-2.565a.732.732,0,0,0-.716.745v21.59a.732.732,0,0,0,.716.743H716.5a.731.731,0,0,0,.716-.743V380.9h2.565a.733.733,0,0,0,.716-.743v-2.743h2.563a.732.732,0,0,0,.716-.745V355.08A.732.732,0,0,0,723.057,354.337Zm-38.769,29.1v-1.612l9.3-9.629,6.735,7.478a.46.46,0,0,0,.692-.009l4.677-5.469,7.077,9.241Zm32,0h-2.338l-7.872-10.279a.459.459,0,0,0-.352-.181.464.464,0,0,0-.363.162l-4.7,5.5-6.714-7.456a.458.458,0,0,0-.671-.011l-8.982,9.3V362.26h32Zm3.279-3.486h-2.352v-17.9a.732.732,0,0,0-.716-.745H687.568v-2.536h32Zm3.279-3.486h-2.35v-17.9a.733.733,0,0,0-.716-.745H690.847v-2.536h32Z" fill="#d60f55"/>
    <path id="Caminho_125" data-name="Caminho 125" d="M891.12,455.451a3.715,3.715,0,1,1,3.507-3.708A3.615,3.615,0,0,1,891.12,455.451Zm0-6.467a2.765,2.765,0,1,0,2.578,2.76A2.677,2.677,0,0,0,891.12,448.983Z" transform="translate(-181.143 -83.094)" fill="#d60f55"/>
  </g>
</svg>
