<svg xmlns="http://www.w3.org/2000/svg" width="40.982" height="25.676" viewBox="0 0 40.982 25.676">
  <g id="Grupo_215" data-name="Grupo 215" transform="translate(-474.134 -864.279)">
    <path id="Caminho_166" data-name="Caminho 166" d="M504.285,872.891v-6.977a1.261,1.261,0,0,0-1.261-1.261H475.77a1.261,1.261,0,0,0-1.261,1.261v17.81a1.261,1.261,0,0,0,1.261,1.261h20.716" transform="translate(0)" fill="none" stroke="#461e6e" stroke-linecap="round" stroke-linejoin="round" stroke-width="0.75"/>
    <path id="Caminho_167" data-name="Caminho 167" d="M617.667,990.314v-3.184a.229.229,0,0,0-.229-.229h-24.78a.229.229,0,0,0-.229.229v11.693h17.363" transform="translate(-115.606 -119.848)" fill="none" stroke="#ea5b1b" stroke-linecap="round" stroke-linejoin="round" stroke-width="0.75"/>
    <path id="Caminho_168" data-name="Caminho 168" d="M589.212,1799.818c-5.718,0-15.048-.041-17.93-.041" transform="translate(-94.875 -916.78)" fill="none" stroke="#461e6e" stroke-linecap="round" stroke-linejoin="round" stroke-width="0.75"/>
    <path id="Caminho_169" data-name="Caminho 169" d="M496.486,1292.742H474.509m33.477,6.449H496.7m11.291-12.479H496.7m18.045,4.236h-6.754m6.754,8.933h-6.754m-21.621-3.206s.025,1.687.011,2.6a1.974,1.974,0,0,1-1.771,1.991h9.584a1.974,1.974,0,0,1-1.771-1.991c-.015-.917.011-2.6.011-2.6m15.558-11.054a1.039,1.039,0,0,0-1.039-1.04h-9.421a1.04,1.04,0,0,0-1.04,1.04v14.609a1.04,1.04,0,0,0,1.04,1.04h9.421a1.039,1.039,0,0,0,1.039-1.04v-14.609Zm6.754,4.954a1.017,1.017,0,0,0-1.017-1.017H509a1.017,1.017,0,0,0-1.018,1.017v9.676a1.018,1.018,0,0,0,1.018,1.018h4.72a1.017,1.017,0,0,0,1.017-1.018v-9.676Z" transform="translate(0 -411.692)" fill="none" stroke="#461e6e" stroke-linecap="round" stroke-linejoin="round" stroke-width="0.75"/>
  </g>
</svg>
