<svg xmlns="http://www.w3.org/2000/svg" width="27.153" height="22" viewBox="0 0 27.153 22">
  <g id="Grupo_216" data-name="Grupo 216" transform="translate(-200 -207.445)">
    <path id="Caminho_170" data-name="Caminho 170" d="M200,209.5v17.888a2.058,2.058,0,0,0,2.056,2.056H225.1a2.053,2.053,0,0,0,2.05-2.056V209.5a2.057,2.057,0,0,0-2.05-2.056H202.056A2.058,2.058,0,0,0,200,209.5Zm25.1,18.574H202.056a.691.691,0,0,1-.691-.691V213.969h24.418v13.421A.685.685,0,0,1,225.1,228.074Zm.691-18.574v3.1H201.365v-3.1a.691.691,0,0,1,.691-.691H225.1A.693.693,0,0,1,225.788,209.5Z" fill="#461e6e"/>
    <path id="Caminho_171" data-name="Caminho 171" d="M248.278,256.355a.692.692,0,0,0,.485-.2.683.683,0,0,0,.2-.485.693.693,0,0,0-.2-.485.7.7,0,0,0-.964,0,.683.683,0,0,0-.2.485.693.693,0,0,0,.2.485A.66.66,0,0,0,248.278,256.355Z" transform="translate(-45.013 -44.965)" fill="#461e6e"/>
    <path id="Caminho_172" data-name="Caminho 172" d="M295.677,256.355a.67.67,0,0,0,.479-.2.682.682,0,0,0,.2-.485.692.692,0,0,0-.2-.485.7.7,0,0,0-.964,0,.683.683,0,0,0-.2.485.692.692,0,0,0,.2.485A.673.673,0,0,0,295.677,256.355Z" transform="translate(-89.833 -44.965)" fill="#461e6e"/>
    <path id="Caminho_173" data-name="Caminho 173" d="M343.168,256.355a.693.693,0,0,0,.485-.2.684.684,0,0,0,.2-.485.693.693,0,0,0-.2-.485.7.7,0,0,0-.964,0,.683.683,0,0,0-.2.485.693.693,0,0,0,.2.485A.67.67,0,0,0,343.168,256.355Z" transform="translate(-134.75 -44.965)" fill="#461e6e"/>
    <path id="Caminho_174" data-name="Caminho 174" d="M514.076,382.815a.684.684,0,1,0-.886,1.042l3.443,2.914-3.443,2.925a.681.681,0,0,0-.078.964.67.67,0,0,0,.518.24.694.694,0,0,0,.44-.161l4.061-3.443a.686.686,0,0,0,0-1.042Z" transform="translate(-295.953 -165.693)" fill="#ea5b1b"/>
    <path id="Caminho_175" data-name="Caminho 175" d="M288.736,386.737l3.438-2.914a.684.684,0,1,0-.886-1.042l-4.056,3.431a.68.68,0,0,0,0,1.036l4.056,3.443a.662.662,0,0,0,.44.162.683.683,0,0,0,.44-1.2Z" transform="translate(-82.268 -165.66)" fill="#ea5b1b"/>
    <path id="Caminho_176" data-name="Caminho 176" d="M409.871,366.929a.68.68,0,0,0-.886.379l-3.437,8.6a.679.679,0,0,0,.379.886.668.668,0,0,0,.251.05.68.68,0,0,0,.635-.429l3.437-8.6A.675.675,0,0,0,409.871,366.929Z" transform="translate(-194.339 -150.776)" fill="#ea5b1b"/>
  </g>
</svg>
