<svg xmlns="http://www.w3.org/2000/svg" width="30.324" height="26.533" viewBox="0 0 30.324 26.533">
  <g id="Grupo_186" data-name="Grupo 186" transform="translate(-128 -144)">
    <path id="Caminho_112" data-name="Caminho 112" d="M248.109,144H233.9a1.9,1.9,0,0,0-1.9,1.9v5.686h.948V145.9a.949.949,0,0,1,.948-.948h14.214a.949.949,0,0,1,.948.948v9.476a.949.949,0,0,1-.948.948h-.948v3.4l-3.12-3.12-.278-.278h-5.131v.948h4.738L248.109,162v-4.738a1.9,1.9,0,0,0,1.9-1.9V145.9A1.9,1.9,0,0,0,248.109,144Z" transform="translate(-91.681)" fill="#461e6e"/>
    <path id="Caminho_113" data-name="Caminho 113" d="M277.421,172.054v.263a13.357,13.357,0,0,0,2.369-1.857,13.555,13.555,0,0,0,2.6,2,.474.474,0,1,0,.49-.811,12.616,12.616,0,0,1-2.449-1.888,7,7,0,0,0,1.723-3.866h.955a.474.474,0,1,0,0-.948h-2.843v-.474a.474.474,0,0,0-.948,0v.474h-2.843a.474.474,0,0,0,0,.948h4.73a6.022,6.022,0,0,1-1.413,3.154,6.748,6.748,0,0,1-1.216-2.206h-.981a7.621,7.621,0,0,0,1.559,2.919,12.01,12.01,0,0,1-1.844,1.5A2.834,2.834,0,0,1,277.421,172.054Z" transform="translate(-130.469 -17.63)" fill="#ea5b1b"/>
    <path id="Caminho_114" data-name="Caminho 114" d="M144.109,216H129.9a1.9,1.9,0,0,0-1.9,1.9v9.476a1.9,1.9,0,0,0,1.9,1.9V234l4.738-4.738h9.476a1.9,1.9,0,0,0,1.9-1.9V217.9A1.9,1.9,0,0,0,144.109,216Zm.948,11.371a.949.949,0,0,1-.948.948h-9.869l-.278.278-3.12,3.12v-3.4H129.9a.949.949,0,0,1-.948-.948V217.9a.949.949,0,0,1,.948-.948h14.214a.949.949,0,0,1,.948.948Z" transform="translate(0 -63.471)" fill="#461e6e"/>
    <path id="Caminho_115" data-name="Caminho 115" d="M179.76,236.308a.474.474,0,0,0-.887,0l-2.843,7.581a.474.474,0,1,0,.887.333l.6-1.588h3.608l.6,1.588a.474.474,0,0,0,.887-.333Zm-1.892,5.378,1.448-3.862,1.448,3.862Z" transform="translate(-42.314 -81.102)" fill="#ea5b1b"/>
  </g>
</svg>
