<svg xmlns="http://www.w3.org/2000/svg" width="44.833" height="47.75" viewBox="0 0 44.833 47.75">
  <g id="Grupo_258" data-name="Grupo 258" transform="translate(-744.019 0.375)">
    <path id="Caminho_152" data-name="Caminho 152" d="M749.566,21.257H773.6m-24.035-3.911H773.6m-19.16-4.537h14.286m10.048,22.1V47H744.394V0h27.578l6.8,6.8V20.4M771.972,0V6.8h6.8M749.566,28.936h10.2" transform="translate(0)" fill="none" stroke="#2d1d5b" stroke-miterlimit="22.926" stroke-width="0.75" fill-rule="evenodd"/>
    <g id="Grupo_213" data-name="Grupo 213" transform="translate(763.057 18.869)">
      <path id="Caminho_153" data-name="Caminho 153" d="M770.423,21.069c1.947-1.494,6.2-4.522,9.24-5.464.415-.081,1.635,1.593,1.824,1.856" transform="translate(-757.609 -15.603)" fill="none" stroke="#e13218" stroke-miterlimit="22.926" stroke-width="0.75" fill-rule="evenodd"/>
      <path id="Caminho_154" data-name="Caminho 154" d="M783.07,17.5c1.388,1.764-5.968,8.17-10.1,11.538l-3.5-4.453c.952-.721,11.792-9.378,13.594-7.085Z" transform="translate(-757.807 -15.287)" fill="none" stroke="#e13218" stroke-miterlimit="22.926" stroke-width="0.75" fill-rule="evenodd"/>
      <path id="Caminho_155" data-name="Caminho 155" d="M774.488,27.082c-2.134,1.726-8.038,6.466-10.3,7.9a39.716,39.716,0,0,1-4.358.97,36.186,36.186,0,0,1,1.984-4c1.926-1.864,7.914-6.5,10.1-8.163" transform="translate(-759.827 -13.89)" fill="none" stroke="#e13218" stroke-miterlimit="22.926" stroke-width="0.75" fill-rule="evenodd"/>
      <line id="Linha_9" data-name="Linha 9" x2="2.384" y2="3.024" transform="translate(2.594 17.618)" fill="none" stroke="#e13218" stroke-miterlimit="22.926" stroke-width="0.75"/>
    </g>
  </g>
</svg>
