<svg xmlns="http://www.w3.org/2000/svg" width="34" height="29" viewBox="0 0 34 29">
  <g id="Grupo_196" data-name="Grupo 196" transform="translate(-600.75 -657.112)">
    <path id="Caminho_121" data-name="Caminho 121" d="M1142.623,920.544h3.474v7.421h1.643l-3.381,4.239-3.381-4.239h1.644Zm-1.223-1.223v7.421h-2.959l5.919,7.422,5.919-7.422h-2.959v-7.421Z" transform="translate(-515.529 -251.453)" fill="#d4004b" fill-rule="evenodd"/>
    <path id="Caminho_122" data-name="Caminho 122" d="M615.55,657.112a14.907,14.907,0,0,1,10.465,4.247,14.492,14.492,0,0,1,3.329,4.989h-1.37a13.268,13.268,0,0,0-2.855-4.111,13.732,13.732,0,0,0-19.138,0,13.07,13.07,0,0,0,0,18.751,13.732,13.732,0,0,0,19.138,0q.2-.195.389-.4l.8.981q-.144.149-.292.294a15.016,15.016,0,0,1-20.929,0,14.292,14.292,0,0,1,0-20.506,14.908,14.908,0,0,1,10.465-4.247" transform="translate(0 0)" fill="#d4004b"/>
    <path id="Caminho_123" data-name="Caminho 123" d="M856.067,830.151V825.83l-.225.017a2.257,2.257,0,0,0-1.405.586,2.052,2.052,0,0,0-.627,1.557,1.905,1.905,0,0,0,.559,1.444,3.02,3.02,0,0,0,1.435.66Zm.978,1.529v4.812l.248-.04a2.861,2.861,0,0,0,1.576-.715,2.237,2.237,0,0,0,.662-1.676,2,2,0,0,0-.6-1.51,3.829,3.829,0,0,0-1.614-.8Zm-.978-8.379v1.411l-.183.016a3.882,3.882,0,0,0-2.416.993,3.16,3.16,0,0,0-.969,2.4,2.832,2.832,0,0,0,.894,2.182,5.026,5.026,0,0,0,2.511,1.1l.163.026v5l-.237-.023a2.508,2.508,0,0,1-1.613-.784,2.836,2.836,0,0,1-.684-1.979.034.034,0,0,0-.033-.034h-1.245a.025.025,0,0,0-.023.01.027.027,0,0,0-.009.024,3.8,3.8,0,0,0,.929,2.735,4.62,4.62,0,0,0,2.741,1.126l.174.021v1.759h.978v-1.778l.175-.02a4.652,4.652,0,0,0,2.691-1.112,3.282,3.282,0,0,0,.987-2.5,3.044,3.044,0,0,0-.825-2.29,6.644,6.644,0,0,0-2.882-1.254l-.146-.034v-4.475l.24.034a2.275,2.275,0,0,1,1.3.574,2.351,2.351,0,0,1,.662,1.38.031.031,0,0,0,.032.028h1.262a.025.025,0,0,0,.024-.01.027.027,0,0,0,.009-.025,2.944,2.944,0,0,0-.912-2.1,4.289,4.289,0,0,0-2.446-.976l-.175-.02V823.3Z" transform="translate(-241.169 -159.65)" fill="#d4004b" fill-rule="evenodd"/>
  </g>
</svg>
