<svg xmlns="http://www.w3.org/2000/svg" width="179" height="36.496" viewBox="0 0 179 36.496">
  <g id="Grupo_103" data-name="Grupo 103" transform="translate(-56.457 -59.895)">
    <path id="Caminho_1" data-name="Caminho 1" d="M86.226,93.764a9.4,9.4,0,0,0-7.666,4.275c-1.5-2.472-3.388-4.275-7.315-4.275-4.562,0-7.9,3.821-7.9,3.821v-2.1c0-1.333-1.642-1.725-2.5-1.725H56.457v25.674h5.519c1.706,0,1.725-1.662,1.725-2.5V104.266a4.4,4.4,0,1,1,8.8,0v15.171h7.2V104.266a4.4,4.4,0,1,1,8.8,0v15.171h7.2V102.4C95.7,98.129,92.1,93.764,86.226,93.764Z" transform="translate(0 -23.977)" fill="#311359"/>
    <path id="Caminho_2" data-name="Caminho 2" d="M221.665,97.711a13.432,13.432,0,0,0-18.759,0c-1.128,1.143-3.528,4.1-3.528,9.6a13.15,13.15,0,0,0,3.528,9.55c1.128,1.143,3.937,3.552,9.379,3.552s8.252-2.409,9.38-3.552a13.147,13.147,0,0,0,3.53-9.55C225.195,101.811,222.793,98.855,221.665,97.711Zm-4.837,15.129a5.351,5.351,0,0,1-9.085,0,10.768,10.768,0,0,1-1.222-5.557,10.585,10.585,0,0,1,1.222-5.583,5.117,5.117,0,0,1,9.085,0,10.593,10.593,0,0,1,1.221,5.583A10.764,10.764,0,0,1,216.828,112.84Z" transform="translate(-101.177 -24.069)" fill="#311359"/>
    <path id="Caminho_3" data-name="Caminho 3" d="M311.518,69.825c-5.7,0-7.977,3.685-7.977,3.685V61.62c0-1.333-1.452-1.725-2.5-1.725h-4.7V95.461h5.142c1.706,0,1.725-1.662,1.725-2.5v-.045c.716,1.089,2.8,3.428,8.309,3.428,7.008,0,10.345-6.782,10.345-13.4C321.862,73.9,316.47,69.825,311.518,69.825Zm-2.493,20.792c-3.187,0-5.728-2.6-5.728-7.554,0-2.915.675-4.5,1.726-5.635a5.426,5.426,0,0,1,4-1.644c4.832,0,5.728,4.715,5.728,7.279C314.753,85.3,314.1,90.617,309.025,90.617Z" transform="translate(-169.819 0)" fill="#311359"/>
    <path id="Caminho_4" data-name="Caminho 4" d="M441.792,61.62c0-1.333-1.451-1.725-2.5-1.725h-4.7V95.461h7.2Z" transform="translate(-267.689 0)" fill="#311359"/>
    <g id="Grupo_3" data-name="Grupo 3" transform="translate(154.99 66.783)">
      <g id="Grupo_2" data-name="Grupo 2" transform="translate(0 0)">
        <rect id="Retângulo_34" data-name="Retângulo 34" width="7.199" height="7.198" fill="#311359"/>
      </g>
      <path id="Caminho_5" data-name="Caminho 5" d="M401.006,134.379V116.6c0-1.333-1.452-1.726-2.5-1.726h-4.7v19.509" transform="translate(-393.807 -105.701)" fill="#311359"/>
    </g>
    <rect id="Retângulo_35" data-name="Retângulo 35" width="7.2" height="19.509" transform="translate(178.771 75.952)" fill="#311359"/>
    <g id="Grupo_4" data-name="Grupo 4" transform="translate(178.773 66.783)">
      <rect id="Retângulo_36" data-name="Retângulo 36" width="7.198" height="7.198" transform="translate(0 0)" fill="#311359"/>
    </g>
    <path id="Caminho_6" data-name="Caminho 6" d="M604.354,93.724c-5.274,0-9.531,3.057-10.231,6.058-.157.681-.287,1.573,1.141,1.781l4.8.7c0-1.263.685-3.529,4.294-3.529,4.809,0,4.355,2.7,4.355,4.392,0,3.5-15.889.132-15.889,9.884,0,5.272,3.958,7.33,8.008,7.33a12.259,12.259,0,0,0,7.638-2.987c.029.775.082,2.057,1.081,2.057h5.612V100.724C615.159,94.542,607.866,93.724,604.354,93.724Zm-1.586,21.789c-1.413,0-3.02-.8-3.02-3.271,0-3.874,8.512-3.428,8.937-3.694v2.531C608.685,112.738,606.435,115.513,602.767,115.513Z" transform="translate(-379.702 -23.948)" fill="#311359"/>
    <path id="Caminho_7" data-name="Caminho 7" d="M531.3,115.648H520.011l12.561-14.266v-5.4H511.86v5.4H524.1l-12.908,14.266V121h22.046v-3.631C533.239,115.911,532.117,115.648,531.3,115.648Z" transform="translate(-321.917 -25.543)" fill="#311359"/>
  </g>
</svg>
