<svg xmlns="http://www.w3.org/2000/svg" width="132" height="26.913" viewBox="0 0 132 26.913">
  <g id="Grupo_151" data-name="Grupo 151" transform="translate(-56.457 -59.895)">
    <path id="Caminho_1" data-name="Caminho 1" d="M78.41,93.764a6.932,6.932,0,0,0-5.653,3.153,5.693,5.693,0,0,0-5.394-3.153c-3.364,0-5.829,2.818-5.829,2.818V95.036c0-.983-1.211-1.272-1.846-1.272H56.457V112.7h4.07c1.258,0,1.272-1.226,1.272-1.845v-9.343a3.245,3.245,0,1,1,6.489,0V112.7H73.6V101.509a3.244,3.244,0,1,1,6.489,0V112.7h5.308V100.132A6.632,6.632,0,0,0,78.41,93.764Z" transform="translate(0 -26.574)" fill="#fc4815"/>
    <path id="Caminho_2" data-name="Caminho 2" d="M215.813,96.709a9.9,9.9,0,0,0-13.833,0,10.877,10.877,0,0,0,0,14.118,10.441,10.441,0,0,0,13.833,0,10.874,10.874,0,0,0,0-14.118Zm-3.567,11.157a3.946,3.946,0,0,1-6.7,0,7.941,7.941,0,0,1-.9-4.1,7.806,7.806,0,0,1,.9-4.117,3.774,3.774,0,0,1,6.7,0,7.811,7.811,0,0,1,.9,4.117A7.937,7.937,0,0,1,212.246,107.866Z" transform="translate(-112.137 -26.676)" fill="#fc4815"/>
    <path id="Caminho_3" data-name="Caminho 3" d="M307.533,67.218a6.878,6.878,0,0,0-5.883,2.718V61.167c0-.983-1.071-1.272-1.845-1.272h-3.464V86.122h3.792c1.258,0,1.272-1.226,1.272-1.845v-.033c.528.8,2.068,2.528,6.128,2.528,5.168,0,7.629-5,7.629-9.883C315.161,70.224,311.185,67.218,307.533,67.218ZM305.695,82.55c-2.35,0-4.224-1.917-4.224-5.571a5.648,5.648,0,0,1,1.273-4.155,4,4,0,0,1,2.951-1.212c3.563,0,4.224,3.477,4.224,5.368C309.918,78.632,309.438,82.55,305.695,82.55Z" transform="translate(-188.216 0)" fill="#fc4815"/>
    <path id="Caminho_4" data-name="Caminho 4" d="M439.9,61.167c0-.983-1.07-1.272-1.845-1.272h-3.464V86.122H439.9Z" transform="translate(-296.689 0)" fill="#fc4815"/>
    <g id="Grupo_3" data-name="Grupo 3" transform="translate(129.118 64.975)">
      <g id="Grupo_2" data-name="Grupo 2" transform="translate(0 0)">
        <rect id="Retângulo_34" data-name="Retângulo 34" width="5.309" height="5.308" fill="#fc4815"/>
      </g>
      <path id="Caminho_5" data-name="Caminho 5" d="M399.115,129.256V116.143c0-.983-1.071-1.273-1.845-1.273h-3.464v14.386" transform="translate(-393.807 -108.109)" fill="#fc4815"/>
    </g>
    <rect id="Retângulo_35" data-name="Retângulo 35" width="5.309" height="14.386" transform="translate(146.655 71.736)" fill="#fc4815"/>
    <g id="Grupo_4" data-name="Grupo 4" transform="translate(146.657 64.975)">
      <rect id="Retângulo_36" data-name="Retângulo 36" width="5.308" height="5.308" transform="translate(0 0)" fill="#fc4815"/>
    </g>
    <path id="Caminho_6" data-name="Caminho 6" d="M601.325,93.724c-3.889,0-7.028,2.254-7.544,4.467-.116.5-.211,1.16.842,1.313l3.536.515c0-.931.505-2.6,3.166-2.6,3.546,0,3.212,1.992,3.212,3.239,0,2.58-11.717.1-11.717,7.289,0,3.888,2.919,5.406,5.905,5.406a9.04,9.04,0,0,0,5.632-2.2c.022.571.06,1.517.8,1.517h4.139V98.886C609.294,94.327,603.916,93.724,601.325,93.724Zm-1.17,16.068a2.146,2.146,0,0,1-2.227-2.412c0-2.857,6.277-2.528,6.59-2.724v1.866C604.519,107.745,602.86,109.792,600.156,109.792Z" transform="translate(-420.837 -26.543)" fill="#fc4815"/>
    <path id="Caminho_7" data-name="Caminho 7" d="M526.024,110.483H517.7l9.263-10.52V95.977H511.685v3.986h9.027l-9.519,10.52v3.95H527.45v-2.678C527.45,110.677,526.623,110.483,526.024,110.483Z" transform="translate(-356.791 -28.31)" fill="#fc4815"/>
  </g>
</svg>
